<svg version="1.1" id="Layer_1" xmlns="http://www.w3.org/2000/svg" xmlns:xlink="http://www.w3.org/1999/xlink" x="0px" y="0px"
	 viewBox="0 0 378.7 155.1" style="enable-background:new 0 0 378.7 155.1;" xml:space="preserve"
	 height="{{ include.height }}" width="{{ include.width }}">
<style type="text/css">
	.white{fill:#FFFFFF;}
	.red{fill:#BE1E2D;}
</style>
<path id="XMLID_17_" class="white" d="M376.5,117.4c-1.9-2.7-4.9-4.3-8.1-4.3c-1.1,0-2.5,0.2-4.1,0.9l2.2-6c2.7-7.4,2.5-13.4-0.5-17.8
	c-1.8-2.5-5.3-5.6-11.9-5.6c-4.1,0-8.2,1.4-12.4,4.3c-2.2-1.9-5.2-3-8.6-3c-3.4,0-6.7,1.4-8.8,3.6c-0.1-0.1-0.1-0.2-0.2-0.3
	c-2.1-3-5.6-4.7-9.7-4.7c-12.5,0-25.6,7-35.7,17.9c0.9-5,0.3-9.2-2-12.4c-1.7-2.5-5.2-5.5-11.7-5.5c-4,0-8,1.4-12.2,4.3
	c-1.7-1.9-4.4-3.8-8.8-4.2c1.6-6.1-2-9.1-3.2-9.9c-1-0.6-4.1-2.3-8-0.4c-3.8,0.2-7.8,0.3-11.9,0.3l4.7-12.9c1.4-3.9,1-7.8-1.2-10.9
	c-2.2-3.2-6-5-10.5-5c-2.2,0-9.4,0.5-11.5,6.4c-0.7,1.9-0.6,3.4-0.4,4.4c0,0.1-0.1,0.3-0.2,0.6l-6.3,17.2c-3.3-0.1-5.3-0.2-5.4-0.2
	l-0.5,0c-5.4,0-9.7,4.5-10.5,10.6c-1.1-0.2-2.2-0.3-3.5-0.3c-4.1,0-8.2,1.4-12.4,4.3c-2.2-1.9-5.2-3-8.6-3c-4.5,0-8.6,2.4-10.5,5.9
	c-0.2-0.3-0.3-0.6-0.5-0.9c-2.2-3.2-6-5-10.5-5c-0.5,0-1.2,0-2,0.1c0.3-0.7,0.4-1.2,0.4-1.2c1.7-6.2-2-9.2-3.2-10
	c-1-0.6-4.1-2.3-8-0.4c-3.8,0.2-7.8,0.3-11.9,0.3l4.7-12.9c1.4-3.9,1-7.8-1.2-10.9c-0.9-1.2-2-2.3-3.2-3.1c3.1-4.1,5.8-8.6,7.6-13.5
	c4.6-12.7,1.9-20.7-1.3-25.2C112,5,106.1,0,94.3,0C65.7,0,26.2,28.3,16,56.1c0,0,0,0.1,0,0.1c-7,19.5-1.9,33.9,9,42.5
	c16,12.6,5.3,31.9-1.6,20.1c-6.3-10.9-29.7,9.4-21.8,27.5c1.9,4.5,8.9,8.8,21.8,8.8c13.9,0,28.5-8,37.8-19.8
	c-1.2,5.7-0.6,10.3,1.9,13.9c1.9,2.7,5.6,5.9,12.7,5.9c4.4,0,8.4-1.3,12.1-3.4c2.7,2.3,6.3,3.5,10.4,3.5c4.1,0,8.2-1.3,12.4-4
	c2.6,2.5,6.2,3.8,10.3,3.8c3.2,0,6.4-0.7,9.6-2.1c1.7,1.1,4,2.1,7.4,2.1c8.7,0,11.5-7.5,12.5-10.4l1.7-4.7c-0.1,3.5,0.8,6.7,2.6,9.3
	c2.6,3.7,6.8,5.8,11.9,5.8c4.1,0,8-1.2,11.6-3.1c2.2,1.7,5.4,3.1,10,3.1c3.4,0,6.6-0.8,9.6-2.1c1.7,1.1,4,2.1,7.4,2.1
	c6.7,0,9.9-4.5,11.5-7.8c0.4,1.3,0.9,2.4,1.5,3.2c1.2,1.7,4.1,4.7,10,4.7c8.7,0,11.6-7.8,12.5-10.4l0.6-1.7c0.3,2.3,1.1,4.5,2.4,6.3
	c2.6,3.7,6.8,5.8,11.9,5.8c4.3,0,8.5-1.2,12.6-3.6c2.9,2.4,6.7,3.6,11.1,3.6c3.7,0,7.4-0.9,10.9-2.8c2.5,1.8,5.7,2.8,9.3,2.8
	c3.4,0,6.6-0.8,9.6-2.1c1.7,1.1,4,2.1,7.4,2.1c8.7,0,11.5-7.5,12.5-10.4l1.7-4.7c-0.1,3.5,0.8,6.7,2.6,9.3c2.6,3.7,6.8,5.8,11.9,5.8
	c14,0,25-13.2,31.7-24.2c0.6-1,0.9-1.7,1.1-2.2C379.3,124.8,378.7,120.5,376.5,117.4z"/>
<g id="XMLID_14_">
	<g id="XMLID_15_">
		<g id="XMLID_49_">
			<path id="XMLID_456_" class="red" d="M5.9,136.3c1.6-4.3,8.5-10.9,11.3-10.9c0.9,0,1.3,0.6,1.5,1.7c0.4,0.6,2.1,4.5,9.3,4.5
				c7.7,0,15-5.1,17.9-13.2C54,96.1,8.5,95.1,22.4,56.8C31.4,32,68.1,5.7,93.6,5.7c14.7,0,20.2,9.6,14.9,24.2
				c-7.6,20.9-39,40.6-50.5,40.6c-6.6,0-8-7-6.6-10.9c1.2-3.2,2.2-1.3,5.4-1.3c10.1,0,32.8-15.8,37.3-28.2
				c2.3-6.4,0.9-10.3-6.6-10.3c-13.9,0-43,16.5-50.5,37c-10.6,29.1,35.2,29.7,23.8,61.1c-5.5,15.2-22.3,27.8-38.1,27.8
				C6.8,145.7,5.5,137.4,5.9,136.3z"/>
		</g>
	</g>
	<path id="XMLID_16_" class="red" d="M367.8,118.7c-1.2,0-2.9,1.2-4.4,4c-3.2,5.8-8.5,14.3-13.5,14.3c-3.2,0-1.4-4.9-1-6.1l9.9-27.3
		c2.2-6.1,2.9-13.3-5.4-13.3c-6.1,0-12.6,5.7-18.7,13.1l2.2-5.9c1.2-3.2-0.5-5.8-4.6-5.8c-1.7,0-3.6,0.9-4,2.2
		c-0.3,0.9-0.1,1.7-1,4.2l-8.3,22.9c-0.4,0.5-0.8,1.1-1.1,1.8c-3.2,5.8-8.5,14.3-13.5,14.3c-3,0-3.1-3.2-2-6.1l7.9-21.8
		c1.2-3.2-0.5-5.8-4.6-5.8c-1.7,0-3.6,0.9-4,2.2c-0.3,0.9-0.1,1.7-1,4.2l-7.4,20.3c-2.7,3.7-6.1,6.9-9.4,6.9c-4.3,0-5.6-4-3.1-10.8
		c6.9-19,21.1-27.6,30.5-27.6c1.2,0,2.4,0.3,3.5,0.3c1.2,0,1.9-0.8,2.7-3c1.2-3.4-0.3-5.5-3.7-5.5c-15.1,0-34.4,13.5-42.4,35.5
		c-0.4,1-0.7,2-0.9,3c-2.9,4.3-6.5,8.2-9.8,8.2c-3.2,0-1.4-4.9-1-6.1l9.9-27.3c2.2-6.1,3-13.3-5.1-13.3c-5.6,0-11.9,5.4-17.5,12.4
		c1.9-5.9,2.2-12.4-5.3-12.4c-5.6,0-11.9,5.5-17.8,12.7l2-5.5c1.2-3.2-0.5-5.8-4.6-5.8c-1.7,0-3.6,0.9-4,2.2c-0.3,0.9-0.1,1.7-1,4.2
		l-8.3,22.9c-0.4,0.5-0.8,1.1-1.1,1.8c-3.2,5.8-8.5,14.3-13.5,14.3c-2.6,0-3.5-1.8-2-6.1L206.2,89c6.6,0,13.9,0,23.9-0.3
		c3.3-0.1,9-12.8,4.1-8.8c-8.6,0.4-17.3,0.5-24.9,0.5l8.4-23.1c1.2-3.2-0.5-5.8-4.6-5.8c-1.7,0-4.2,0.5-4.5,1.5
		c-0.3,0.9,0.8,1.2-0.6,5l-8.1,22.3c-6.7-0.1-11-0.4-11-0.4c-3.6,0-4.6,8.8-0.6,8.8c0,0,3,0.3,8.5,0.3l-12.9,35.5
		c-3.3,5.6-8,12.5-12.5,12.5c-3.2,0-1.4-4.9-1-6.1l9.9-27.3c2.2-6.1,2.9-13.3-5.4-13.3c-6.1,0-12.6,5.7-18.7,13.1l2.2-5.9
		c1.2-3.2-0.5-5.8-4.6-5.8c-1.7,0-3.6,0.9-4,2.2c-0.3,0.9-0.1,1.7-1,4.2l-8.3,22.9c-0.4,0.5-0.8,1.1-1.1,1.8
		c-3.2,5.8-8.5,14.3-13.5,14.3c-3.2,0-1.4-4.9-1-6.1l12.2-33.5c1.2-3.2-0.5-5.8-4.6-5.8c-1.7,0-4.2,0.5-4.5,1.5
		c-0.3,0.9,0.8,1.2-0.6,5l-7.7,21.3c-4.9,9.2-11.7,17.8-16.7,17.8c-3.6,0-4.3-3.8-1.7-11c4-11.1,7.5-16.9,13.3-26.7
		c1.2-2,6.7-7.3,0.7-7.3c-6.6,0-6.7,2.6-8.4,4.9c0,0-10.2,15.7-15.3,29.7c-0.1,0.2-0.1,0.4-0.2,0.7c-3.1,4.8-7,9.5-10.7,9.5
		c-2.6,0-3.5-1.8-2-6.1L93.8,89c6.6,0,13.9,0,23.9-0.3c3.3-0.1,9-12.8,4.1-8.8c-8.6,0.4-17.3,0.5-24.9,0.5l8.4-23.1
		c1.2-3.2-0.5-5.8-4.6-5.8c-1.7,0-4.2,0.5-4.5,1.5c-0.3,0.9,0.8,1.2-0.6,5l-8.1,22.3c-6.7-0.1-11-0.4-11-0.4c-3.6,0-4.6,8.8-0.6,8.8
		c0,0,3,0.3,8.5,0.3l-15.3,42c-3.8,10.4-0.6,14.7,6.1,14.7c5.2,0,10.1-2.9,14.4-6.8c0.6,4.4,3.3,6.9,8.2,6.9c5.5,0,10.9-4,15.9-9.5
		c-1.1,5.3,1.2,9.4,6.8,9.4c4.7,0,9.2-2.3,13.1-5.7c-1.7,4.8,1.4,5.7,3.9,5.7c3.6,0,4.6-3.2,5.5-5.7l7-19.3
		c4.7-10.4,16.5-21.8,20.1-21.8c2.4,0,1.4,3.4-0.1,7.5l-9.8,26.8c-2.5,6.7-0.7,12.4,5.9,12.4c5,0,9.8-2.6,13.9-6.4
		c0.3,4.4,3.2,6.4,7.7,6.4c4.7,0,9.2-2.3,13.1-5.7c-1.7,4.8,1.4,5.7,3.9,5.7c3.6,0,4.6-3.2,5.5-5.7l7-19.3
		c4.5-10.4,15.7-21.8,19.1-21.8c2.1,0,1.1,3.4-0.4,7.5l-12.2,33.4c-1.8,4.9,1.4,5.8,3.8,5.8c3.6,0,4.6-3.2,5.5-5.7l7-19.3
		c4.5-10.4,15.7-21.8,19.1-21.8c2.1,0,1.1,3.4-0.4,7.5l-9.8,26.8c-2.5,6.7-0.7,12.4,5.9,12.4c5.3,0,10.2-2.9,14.5-6.9
		c0.9,4.3,3.9,6.9,9.2,6.9c4.7,0,9.1-2.4,12.6-5.4c0.7,3.2,3.2,5.4,7.6,5.4c4.7,0,9.2-2.3,13.1-5.7c-1.7,4.8,1.4,5.7,3.9,5.7
		c3.6,0,4.6-3.2,5.5-5.7l7-19.3c4.7-10.4,16.5-21.8,20.1-21.8c2.4,0,1.4,3.4-0.1,7.5l-9.8,26.8c-2.5,6.7-0.7,12.4,5.9,12.4
		c10.7,0,20-11.9,25.2-20.6c0.3-0.5,0.4-0.8,0.5-0.9C371.1,121.6,369.8,118.7,367.8,118.7z"/>
</g>
</svg>
